<svg id="visual" viewBox="0 0 960 540" width="960" height="540" xmlns="http://www.w3.org/2000/svg" xmlns:xlink="http://www.w3.org/1999/xlink" version="1.1"><g stroke-width="1" stroke-linejoin="bevel"><path d="M497 322L722 342L507 187Z" fill="#e56dc4" stroke="#e56dc4"></path><path d="M722 342L753 162L507 187Z" fill="#ee74be" stroke="#ee74be"></path><path d="M753 162L680 0L507 187Z" fill="#f985b4" stroke="#f985b4"></path><path d="M680 0L506 0L507 187Z" fill="#e56dc4" stroke="#e56dc4"></path><path d="M225 198L262 365L497 322Z" fill="#f985b4" stroke="#f985b4"></path><path d="M515 540L715 540L722 342Z" fill="#bd5fdc" stroke="#bd5fdc"></path><path d="M722 342L960 214L753 162Z" fill="#8f5eed" stroke="#8f5eed"></path><path d="M497 322L515 540L722 342Z" fill="#a85ee4" stroke="#a85ee4"></path><path d="M960 392L960 214L722 342Z" fill="#ee74be" stroke="#ee74be"></path><path d="M753 162L960 0L680 0Z" fill="#f47cb8" stroke="#f47cb8"></path><path d="M715 540L960 392L722 342Z" fill="#ee74be" stroke="#ee74be"></path><path d="M225 198L497 322L507 187Z" fill="#bd5fdc" stroke="#bd5fdc"></path><path d="M497 322L262 365L515 540Z" fill="#f47cb8" stroke="#f47cb8"></path><path d="M267 0L225 198L507 187Z" fill="#bd5fdc" stroke="#bd5fdc"></path><path d="M960 214L960 0L753 162Z" fill="#f47cb8" stroke="#f47cb8"></path><path d="M506 0L267 0L507 187Z" fill="#8f5eed" stroke="#8f5eed"></path><path d="M715 540L960 540L960 392Z" fill="#cd62d3" stroke="#cd62d3"></path><path d="M0 540L260 540L262 365Z" fill="#e56dc4" stroke="#e56dc4"></path><path d="M262 365L260 540L515 540Z" fill="#f985b4" stroke="#f985b4"></path><path d="M225 198L0 324L262 365Z" fill="#fd8eb1" stroke="#fd8eb1"></path><path d="M0 200L0 324L225 198Z" fill="#f47cb8" stroke="#f47cb8"></path><path d="M0 0L0 200L225 198Z" fill="#ff98af" stroke="#ff98af"></path><path d="M267 0L0 0L225 198Z" fill="#bd5fdc" stroke="#bd5fdc"></path><path d="M0 324L0 540L262 365Z" fill="#ff98af" stroke="#ff98af"></path></g></svg>